<?xml version="1.0" encoding="iso-8859-1"?>
<!-- Generator: Adobe Illustrator 16.0.0, SVG Export Plug-In . SVG Version: 6.00 Build 0)  -->
<!DOCTYPE svg PUBLIC "-//W3C//DTD SVG 1.1//EN" "http://www.w3.org/Graphics/SVG/1.1/DTD/svg11.dtd">
<svg version="1.1" xmlns="http://www.w3.org/2000/svg" xmlns:xlink="http://www.w3.org/1999/xlink" x="0px" y="0px" width="300px"
	 height="300px" viewBox="0 0 300 300" style="enable-background:new 0 0 300 300;" xml:space="preserve">
<g id="learning_2">
	<g>
		<g>
			<circle style="fill:#4884D1;" cx="130.576" cy="136.693" r="6.181"/>
			<circle style="fill:#4884D1;" cx="167.662" cy="136.693" r="6.181"/>
			<path style="fill:#4884D1;" d="M272.738,161.416c0-8.07-5.167-14.915-12.362-17.462V87.245c0-44.377-35.975-80.353-80.353-80.353
				c-44.375,0-80.352,35.975-80.352,80.353v67.99H25.5v135.981h231.786V179.682C266.051,178.209,272.738,170.604,272.738,161.416z
				 M180.023,19.254c37.551,0,67.991,30.44,67.991,67.991v55.628h-6.181c-10.234,0-18.543-8.299-18.543-18.543V87.245l0,0l0,0
				c0-3.411-2.771-6.181-6.182-6.181c-3.41,0-6.181,2.771-6.181,6.181c0,10.237-8.3,18.543-18.543,18.543h-80.353V87.245
				C112.033,49.694,142.475,19.254,180.023,19.254z M37.862,192.321h18.543c3.412,0,6.181,2.771,6.181,6.181
				s-2.769,6.182-6.181,6.182H37.862V192.321z M37.862,217.045h18.543c3.412,0,6.181,2.771,6.181,6.182
				c0,3.41-2.769,6.181-6.181,6.181H37.862V217.045z M37.862,241.769h18.543c3.412,0,6.181,2.771,6.181,6.182
				c0,3.41-2.769,6.181-6.181,6.181H37.862V241.769z M37.862,278.854v-12.362h18.543l0,0c10.239,0,18.543-8.305,18.543-18.542
				c0-4.757-1.805-9.079-4.75-12.362c2.946-3.283,4.75-7.605,4.75-12.361c0-4.757-1.805-9.079-4.75-12.362
				c2.946-3.284,4.75-7.605,4.75-12.362c0-10.237-8.304-18.543-18.543-18.543l0,0H37.862v-12.361h61.81v111.257H37.862z
				 M112.033,278.854V167.598h12.362v111.257H112.033z M136.757,278.854V167.598h61.809v12.361h-18.543
				c-10.233,0-18.543,8.306-18.543,18.543c0,4.757,1.809,9.078,4.751,12.362c-2.942,3.283-4.751,7.605-4.751,12.362
				c0,4.756,1.809,9.078,4.751,12.361c-2.942,3.283-4.751,7.605-4.751,12.362c0,10.237,8.31,18.542,18.543,18.542h18.543v12.362
				H136.757z M198.566,254.131h-18.543c-3.41,0-6.181-2.771-6.181-6.181c0-3.411,2.771-6.182,6.181-6.182h18.543V254.131z
				 M173.843,223.227c0-3.411,2.771-6.182,6.181-6.182h18.543v12.362h-18.543C176.613,229.407,173.843,226.637,173.843,223.227z
				 M180.023,204.684c-3.41,0-6.181-2.771-6.181-6.182s2.771-6.181,6.181-6.181h18.543v12.362H180.023z M210.929,278.854v-49.447
				h33.995v49.447H210.929z M254.195,167.598h-9.271v49.447h-33.995v-61.81h-98.896V118.15h81.897v-0.079
				c6.368-0.314,12.218-2.547,16.998-6.145v13.949h0.078c0.81,16.346,14.285,29.359,30.827,29.359h12.361
				c3.41,0,6.181,2.771,6.181,6.181C260.376,164.827,257.605,167.598,254.195,167.598z"/>
		</g>
	</g>
</g>
<g id="Layer_1">
</g>
</svg>
