<?xml version="1.0" encoding="iso-8859-1"?>
<!-- Generator: Adobe Illustrator 16.0.0, SVG Export Plug-In . SVG Version: 6.00 Build 0)  -->
<!DOCTYPE svg PUBLIC "-//W3C//DTD SVG 1.1//EN" "http://www.w3.org/Graphics/SVG/1.1/DTD/svg11.dtd">
<svg version="1.1" xmlns="http://www.w3.org/2000/svg" xmlns:xlink="http://www.w3.org/1999/xlink" x="0px" y="0px" width="300px"
	 height="300px" viewBox="0 0 300 300" style="enable-background:new 0 0 300 300;" xml:space="preserve">
<g id="giving_2">
	<g>
		<path style="fill:#FDB948;" d="M274.013,290.428H26.452c-3.253,0-5.895-2.642-5.895-5.895V131.281
			c0-3.252,2.641-5.895,5.895-5.895h247.561c3.241,0,5.896,2.643,5.896,5.895v153.252
			C279.908,287.786,277.254,290.428,274.013,290.428z M32.346,278.64h235.773V137.175H32.346V278.64z"/>
		<path style="fill:#FDB948;" d="M285.802,137.175H14.663c-3.253,0-5.894-2.642-5.894-5.895V84.126c0-3.252,2.641-5.894,5.894-5.894
			h271.139c3.241,0,5.895,2.642,5.895,5.894v47.155C291.696,134.533,289.043,137.175,285.802,137.175z M20.557,125.386h259.351
			V90.021H20.557V125.386z"/>
		<path style="fill:#FDB948;" d="M126.655,137.175h11.789V278.64h-11.789V137.175z"/>
		<path style="fill:#FDB948;" d="M162.021,137.175h11.789V278.64h-11.789V137.175z"/>
		<path style="fill:#FDB948;" d="M126.655,90.021h11.789v35.366h-11.789V90.021z"/>
		<path style="fill:#FDB948;" d="M162.021,90.021h11.789v35.366h-11.789V90.021z"/>
		<path style="fill:#FDB948;" d="M150.232,90.021c-3.252,0-5.894-2.642-5.894-5.895c0-58.517-26.795-64.837-38.313-64.837
			c-17.848,0-20.135,9.348-20.135,17.493c0,16.777,26.537,41.451,34.871,41.451c3.252,0,5.894,2.642,5.894,5.894
			c0,3.252-2.642,5.895-5.894,5.895c-14.641,0-46.66-30.369-46.66-53.239c0-18.612,11.636-29.281,31.924-29.281
			c11.754,0,50.102,5.528,50.102,76.626C156.127,87.378,153.484,90.021,150.232,90.021z"/>
		<path style="fill:#FDB948;" d="M179.704,90.021c-3.241,0-5.895-2.642-5.895-5.895c0-3.252,2.653-5.894,5.895-5.894
			c8.347,0,34.871-24.674,34.871-41.451c0-8.145-2.288-17.493-20.136-17.493c-11.518,0-38.312,6.32-38.312,64.837
			c0,3.252-2.643,5.895-5.895,5.895c-3.252,0-5.894-2.642-5.894-5.895c0-71.098,38.347-76.626,50.101-76.626
			c20.288,0,31.924,10.669,31.924,29.281C226.363,59.651,194.346,90.021,179.704,90.021z"/>
	</g>
</g>
<g id="Layer_1">
</g>
</svg>
