<?xml version="1.0" encoding="iso-8859-1"?>
<!-- Generator: Adobe Illustrator 16.0.0, SVG Export Plug-In . SVG Version: 6.00 Build 0)  -->
<!DOCTYPE svg PUBLIC "-//W3C//DTD SVG 1.1//EN" "http://www.w3.org/Graphics/SVG/1.1/DTD/svg11.dtd">
<svg version="1.1" xmlns="http://www.w3.org/2000/svg" xmlns:xlink="http://www.w3.org/1999/xlink" x="0px" y="0px" width="300px"
	 height="300px" viewBox="0 0 300 300" style="enable-background:new 0 0 300 300;" xml:space="preserve">
<g id="learning_1">
	<g>
		<g>
			<g>
				<path style="fill:#4884D1;" d="M245.607,106.482c-3.888,0-7.057,3.209-7.057,7.17c0,3.944,3.169,7.157,7.057,7.157
					c3.907,0,7.082-3.212,7.082-7.157C252.689,109.691,249.515,106.482,245.607,106.482 M245.607,129.6
					c-8.681,0-15.74-7.156-15.74-15.948c0-8.805,7.06-15.961,15.74-15.961c8.69,0,15.767,7.157,15.767,15.961
					C261.374,122.443,254.301,129.6,245.607,129.6"/>
				<path style="fill:#4884D1;" d="M267.154,156.394l-7.761-3.928c1.017-2.081,1.558-4.421,1.558-6.808
					c0-8.566-6.872-15.528-15.313-15.528c-8.456,0-15.324,6.962-15.324,15.528c0,2.37,0.537,4.727,1.551,6.834l-7.801,3.874
					c-1.595-3.3-2.427-7.012-2.427-10.714c0-13.42,10.758-24.323,24.001-24.323c13.232,0,23.997,10.903,23.997,24.323
					C269.628,149.384,268.778,153.11,267.154,156.394"/>
			</g>
			<polygon style="fill:#4884D1;" points="245.11,197.306 224.023,156.238 231.73,152.188 245.295,178.608 259.494,152.221 
				267.127,156.427 			"/>
			<g>
				<path style="fill:#4884D1;" d="M31.999,186.89c-3.902,0-7.061,3.219-7.061,7.163c0,3.954,3.159,7.16,7.061,7.16
					c3.897,0,7.084-3.206,7.084-7.16C39.083,190.102,35.896,186.89,31.999,186.89 M31.999,210c-8.682,0-15.743-7.156-15.743-15.951
					c0-8.801,7.061-15.954,15.743-15.954c8.692,0,15.77,7.153,15.77,15.954C47.769,202.844,40.685,210,31.999,210"/>
				<path style="fill:#4884D1;" d="M10.44,236.773C8.824,233.396,8,229.799,8,226.066c0-13.411,10.769-24.32,24.009-24.32
					c7.586,0,14.563,3.528,19.16,9.657l-6.923,5.311c-2.936-3.917-7.387-6.156-12.24-6.156c-8.449,0-15.324,6.955-15.324,15.512
					c0,2.387,0.525,4.703,1.571,6.851L10.44,236.773z"/>
				<path style="fill:#4884D1;" d="M79.447,186.89c-3.904,0-7.056,3.219-7.056,7.163c0,3.954,3.152,7.16,7.056,7.16
					c3.899,0,7.067-3.206,7.067-7.16C86.514,190.102,83.346,186.89,79.447,186.89 M79.447,210c-8.679,0-15.745-7.156-15.745-15.951
					c0-8.801,7.066-15.954,15.745-15.954c8.692,0,15.755,7.153,15.755,15.954C95.202,202.844,88.139,210,79.447,210"/>
				<path style="fill:#4884D1;" d="M66.923,217.171l-7.106-5.079c4.51-6.482,11.856-10.353,19.655-10.353
					c7.794,0,15.132,3.864,19.634,10.336l-7.106,5.055C86.249,208.89,72.669,208.899,66.923,217.171"/>
				<path style="fill:#4884D1;" d="M126.906,186.89c-3.897,0-7.072,3.219-7.072,7.163c0,3.954,3.175,7.16,7.072,7.16
					c3.897,0,7.066-3.206,7.066-7.16C133.972,190.102,130.803,186.89,126.906,186.89 M126.906,210
					c-8.69,0-15.753-7.156-15.753-15.951c0-8.801,7.062-15.954,15.753-15.954c8.684,0,15.753,7.153,15.753,15.954
					C142.659,202.844,135.59,210,126.906,210"/>
				<path style="fill:#4884D1;" d="M139.45,217.15c-5.747-8.261-19.335-8.261-25.068,0l-7.12-5.075
					c4.508-6.452,11.853-10.322,19.661-10.322c7.794,0,15.135,3.863,19.624,10.349L139.45,217.15z"/>
				<path style="fill:#4884D1;" d="M174.351,186.89c-3.897,0-7.069,3.219-7.069,7.163c0,3.954,3.172,7.16,7.069,7.16
					c3.9,0,7.059-3.206,7.059-7.16C181.409,190.102,178.247,186.89,174.351,186.89 M174.351,210
					c-8.685,0-15.761-7.156-15.761-15.951c0-8.801,7.076-15.954,15.761-15.954c8.684,0,15.743,7.153,15.743,15.954
					C190.094,202.844,183.034,210,174.351,210"/>
				<path style="fill:#4884D1;" d="M161.812,217.15l-7.106-5.075c4.509-6.452,11.856-10.322,19.657-10.322
					c7.798,0,15.136,3.863,19.638,10.322l-7.106,5.055C181.147,208.873,167.556,208.89,161.812,217.15"/>
				<path style="fill:#4884D1;" d="M221.794,186.89c-3.894,0-7.059,3.219-7.059,7.163c0,3.954,3.165,7.16,7.059,7.16
					c3.897,0,7.076-3.206,7.076-7.16C228.87,190.102,225.691,186.89,221.794,186.89 M221.794,210
					c-8.68,0-15.742-7.156-15.742-15.951c0-8.801,7.062-15.954,15.742-15.954c8.691,0,15.764,7.153,15.764,15.954
					C237.555,202.844,230.485,210,221.794,210"/>
				<path style="fill:#4884D1;" d="M209.264,217.15l-7.109-5.049c4.491-6.479,11.849-10.349,19.664-10.349
					c7.791,0,15.139,3.863,19.646,10.322l-7.106,5.075C228.589,208.853,214.98,208.916,209.264,217.15"/>
				<path style="fill:#4884D1;" d="M269.249,186.89c-3.891,0-7.069,3.219-7.069,7.163c0,3.954,3.179,7.16,7.069,7.16
					c3.903,0,7.079-3.206,7.079-7.16C276.328,190.102,273.152,186.89,269.249,186.89 M269.249,210
					c-8.691,0-15.754-7.156-15.754-15.951c0-8.801,7.062-15.954,15.754-15.954c8.697,0,15.767,7.153,15.767,15.954
					C285.012,202.844,277.946,210,269.249,210"/>
				<path style="fill:#4884D1;" d="M290.785,236.804l-7.777-3.917c1.041-2.107,1.571-4.394,1.571-6.82
					c0-8.554-6.875-15.516-15.313-15.516c-4.981,0-9.671,2.464-12.555,6.6l-7.105-5.075c4.508-6.452,11.872-10.322,19.663-10.322
					c13.239,0,24.001,10.899,24.001,24.31C293.263,229.849,292.431,233.451,290.785,236.804"/>
				<path style="fill:#4884D1;" d="M55.726,216.043c-3.89,0-7.062,3.229-7.062,7.177c0,3.94,3.172,7.146,7.062,7.146
					c3.909,0,7.078-3.206,7.078-7.146C62.801,219.271,59.635,216.043,55.726,216.043 M55.726,239.164
					c-8.682,0-15.747-7.16-15.747-15.944c0-8.802,7.064-15.972,15.747-15.972c8.697,0,15.763,7.17,15.763,15.972
					C71.489,232.004,64.42,239.164,55.726,239.164"/>
				<path style="fill:#4884D1;" d="M77.268,265.957l-7.786-3.914c1.042-2.128,1.575-4.41,1.575-6.813
					c0-8.56-6.868-15.521-15.313-15.521c-8.449,0-15.331,6.955-15.331,15.521c0,2.387,0.527,4.686,1.564,6.838l-7.803,3.85
					c-1.615-3.363-2.444-6.962-2.444-10.694c0-13.407,10.77-24.323,24.021-24.323c13.232,0,24.006,10.916,24.006,24.323
					C79.74,258.995,78.911,262.598,77.268,265.957"/>
				<path style="fill:#4884D1;" d="M103.184,216.043c-3.91,0-7.083,3.229-7.083,7.177c0,3.94,3.172,7.146,7.083,7.146
					c3.894,0,7.069-3.206,7.069-7.146C110.253,219.271,107.078,216.043,103.184,216.043 M103.184,239.164
					c-8.7,0-15.77-7.16-15.77-15.944c0-8.802,7.069-15.972,15.77-15.972c8.681,0,15.75,7.17,15.75,15.972
					C118.934,232.004,111.864,239.164,103.184,239.164"/>
				<path style="fill:#4884D1;" d="M124.717,265.957l-7.791-3.914c1.041-2.121,1.571-4.41,1.571-6.813
					c0-8.56-6.854-15.521-15.3-15.521s-15.327,6.955-15.327,15.521c0,2.406,0.514,4.713,1.558,6.838l-7.801,3.86
					c-1.61-3.337-2.434-6.945-2.434-10.705c0-13.407,10.758-24.323,24.011-24.323c13.232,0,23.984,10.916,23.984,24.323
					C127.178,258.995,126.349,262.604,124.717,265.957"/>
				<path style="fill:#4884D1;" d="M150.628,216.043c-3.9,0-7.062,3.229-7.062,7.177c0,3.94,3.162,7.146,7.062,7.146
					s7.069-3.206,7.069-7.146C157.697,219.271,154.525,216.043,150.628,216.043 M150.628,239.164c-8.69,0-15.756-7.16-15.756-15.944
					c0-8.802,7.066-15.972,15.756-15.972c8.694,0,15.75,7.17,15.75,15.972C166.378,232.004,159.322,239.164,150.628,239.164"/>
				<path style="fill:#4884D1;" d="M172.161,265.957l-7.791-3.914c1.058-2.128,1.588-4.41,1.588-6.813
					c0-8.56-6.867-15.521-15.31-15.521c-8.459,0-15.337,6.955-15.337,15.521c0,2.387,0.527,4.686,1.575,6.838l-7.801,3.86
					c-1.628-3.367-2.46-6.966-2.46-10.705c0-13.407,10.778-24.323,24.027-24.323c13.229,0,23.994,10.916,23.994,24.323
					C174.643,258.995,173.813,262.598,172.161,265.957"/>
				<path style="fill:#4884D1;" d="M198.069,216.043c-3.891,0-7.057,3.229-7.057,7.177c0,3.94,3.166,7.146,7.057,7.146
					c3.896,0,7.075-3.206,7.075-7.146C205.145,219.271,201.966,216.043,198.069,216.043 M198.069,239.164
					c-8.681,0-15.743-7.16-15.743-15.944c0-8.802,7.062-15.972,15.743-15.972c8.69,0,15.767,7.17,15.767,15.972
					C213.832,232.004,206.76,239.164,198.069,239.164"/>
				<path style="fill:#4884D1;" d="M219.603,265.971l-7.768-3.938c1.037-2.107,1.567-4.397,1.567-6.804
					c0-8.566-6.864-15.535-15.313-15.535c-8.442,0-15.32,6.962-15.32,15.535c0,2.39,0.524,4.696,1.555,6.848l-7.808,3.844
					c-1.615-3.36-2.438-6.945-2.438-10.698c0-13.403,10.782-24.323,24.018-24.323c13.232,0,24.001,10.92,24.001,24.323
					C222.087,259.013,221.244,262.617,219.603,265.971"/>
				<path style="fill:#4884D1;" d="M245.523,216.043c-3.891,0-7.06,3.229-7.06,7.177c0,3.94,3.169,7.146,7.06,7.146
					c3.91,0,7.079-3.206,7.079-7.146C252.6,219.271,249.431,216.043,245.523,216.043 M245.523,239.164
					c-8.681,0-15.757-7.16-15.757-15.944c0-8.802,7.076-15.972,15.757-15.972c8.697,0,15.763,7.17,15.763,15.972
					C261.283,232.004,254.221,239.164,245.523,239.164"/>
				<path style="fill:#4884D1;" d="M267.057,265.971l-7.774-3.938c1.044-2.107,1.568-4.397,1.568-6.804
					c0-8.566-6.872-15.535-15.311-15.535c-8.456,0-15.337,6.962-15.337,15.535c0,2.39,0.523,4.689,1.577,6.841l-7.804,3.86
					c-1.635-3.363-2.457-6.948-2.457-10.708c0-13.403,10.771-24.323,24.018-24.323c13.231,0,24,10.92,24,24.323
					C269.541,259.013,268.701,262.617,267.057,265.971"/>
				<path style="fill:#4884D1;" d="M230.915,165.161H71.023c-7.632,0-13.854-6.29-13.854-14.024V49.035
					C57.169,41.304,63.391,35,71.023,35h159.22c7.63,0,13.856,6.301,13.856,14.035v54.973h-8.687V49.035
					c0-2.883-2.33-5.233-5.17-5.233H71.023c-2.853,0-5.166,2.35-5.166,5.233v102.109c0,2.887,2.316,5.226,5.166,5.226h159.892
					V165.161L230.915,165.161z"/>
			</g>
			<rect x="63.079" y="59.534" style="fill:#4884D1;" width="175.361" height="8.805"/>
		</g>
	</g>
</g>
<g id="Layer_1">
</g>
</svg>
