<?xml version="1.0" encoding="iso-8859-1"?>
<!-- Generator: Adobe Illustrator 16.0.0, SVG Export Plug-In . SVG Version: 6.00 Build 0)  -->
<!DOCTYPE svg PUBLIC "-//W3C//DTD SVG 1.1//EN" "http://www.w3.org/Graphics/SVG/1.1/DTD/svg11.dtd">
<svg version="1.1" xmlns="http://www.w3.org/2000/svg" xmlns:xlink="http://www.w3.org/1999/xlink" x="0px" y="0px" width="300px"
	 height="300px" viewBox="0 0 300 300" style="enable-background:new 0 0 300 300;" xml:space="preserve">
<g id="choice_1">
	<path style="fill:#FD8C48;" d="M221,161.883c-1.893,0-3.47,0.317-5.365,0.632c-2.838-7.257-10.099-12.622-18.302-12.622
		c-1.892,0-3.47,0.316-5.364,0.632c-2.839-7.259-10.099-12.622-18.302-12.622c-1.264,0-2.524,0-4.102,0.314v-22.089
		c0-10.729-8.835-19.879-19.881-19.879c-11.044,0-19.879,8.835-19.879,19.879v46.387l-20.827,21.144
		c-1.578,1.577-2.209,3.47-2.209,5.679v55.223c0,2.209,0.947,4.102,2.209,5.679l21.458,21.458v12.622
		c0,4.419,3.471,7.889,7.889,7.889c4.419,0,7.889-3.47,7.889-7.889V268.54c0-2.206-0.946-4.102-2.208-5.679l-21.459-21.457v-48.912
		l7.889-7.889v36.289c0,4.419,3.471,7.889,7.889,7.889c4.419,0,7.889-3.47,7.889-7.889V116.443c0-2.208,1.894-4.102,4.103-4.102
		c2.208,0,4.103,1.894,4.103,4.102v72.894c0,4.419,3.47,7.889,7.889,7.889c4.416,0,7.89-3.47,7.89-7.889v-31.556
		c0-2.209,1.892-4.102,4.102-4.102c2.209,0,4.102,1.893,4.102,4.102v31.556c0,4.419,3.47,7.889,7.889,7.889s7.889-3.47,7.889-7.889
		v-19.879c0-2.21,1.893-4.102,4.102-4.102c2.21,0,4.102,1.892,4.102,4.102v19.879c0,4.419,3.473,7.889,7.889,7.889
		c4.419,0,7.89-3.47,7.89-7.889v-7.889c0-2.21,1.895-4.102,4.104-4.102c2.206,0,4.102,1.892,4.102,4.102v61.848l-7.574,22.406
		c-0.314,0.946-0.314,1.578-0.314,2.523v10.099v5.68c0,4.419,3.47,7.889,7.889,7.889c4.416,0,7.889-3.47,7.889-7.889v-14.515
		l7.571-22.406c0.317-0.946,0.317-1.577,0.317-2.523v-63.111C240.879,170.718,231.73,161.883,221,161.883z"/>
	<path style="fill:#FD8C48;" d="M228.889,7.893c-34.711,0-63.111,28.4-63.111,63.111c0,34.711,28.4,63.111,63.111,63.111
		S292,105.715,292,71.004C292,36.292,263.6,7.893,228.889,7.893z M228.889,118.337c-26.19,0-47.333-21.143-47.333-47.333
		s21.143-47.333,47.333-47.333s47.334,21.143,47.334,47.333S255.079,118.337,228.889,118.337z"/>
	<polygon style="fill:#FD8C48;" points="245.612,43.235 228.889,59.959 212.165,43.235 201.121,54.28 217.845,71.004 
		201.121,87.728 212.165,98.772 228.889,82.048 245.612,98.772 256.657,87.728 239.934,71.004 256.657,54.28 	"/>
	<path style="fill:#FD8C48;" d="M134.222,71.004c0-34.711-28.4-63.111-63.111-63.111C36.4,7.893,8,36.292,8,71.004
		c0,34.711,28.4,63.111,63.111,63.111C105.822,134.115,134.222,105.715,134.222,71.004z M71.111,118.337
		c-26.19,0-47.333-21.143-47.333-47.333S44.921,23.67,71.111,23.67s47.333,21.143,47.333,47.333S97.302,118.337,71.111,118.337z"/>
	<polygon style="fill:#FD8C48;" points="93.832,47.653 65.746,75.737 49.022,59.013 37.978,70.058 65.746,97.826 104.876,59.013 	
		"/>
</g>
<g id="Layer_1">
</g>
</svg>
