<?xml version="1.0" encoding="iso-8859-1"?>
<!-- Generator: Adobe Illustrator 16.0.0, SVG Export Plug-In . SVG Version: 6.00 Build 0)  -->
<!DOCTYPE svg PUBLIC "-//W3C//DTD SVG 1.1//EN" "http://www.w3.org/Graphics/SVG/1.1/DTD/svg11.dtd">
<svg version="1.1" xmlns="http://www.w3.org/2000/svg" xmlns:xlink="http://www.w3.org/1999/xlink" x="0px" y="0px" width="300px"
	 height="300px" viewBox="0 0 300 300" style="enable-background:new 0 0 300 300;" xml:space="preserve">
<g id="people_first_1">
	<g>
		<g>
			<rect x="-28.4" y="-26.93" style="fill:none;" width="361.765" height="361.764"/>
		</g>
		<g>
			<g>
				<path style="fill:#3BD0AB;" d="M194.335,170.874c0.33-2.419,0.492-4.747,0.492-6.956c-0.028-13.781-5.55-22.882-7.257-25.383
					c-0.008-0.015-0.008-0.029-0.014-0.036l-0.174-0.24c-0.148-0.205-0.262-0.361-0.297-0.41l-0.003,0.004l-0.474-0.639
					c-0.534-0.735-1.575-0.901-2.314-0.361l-5.786,4.218c-0.739,0.533-0.902,1.579-0.367,2.314l0.939,1.289
					c0.018,0.015,0.035,0.021,0.049,0.042c1.261,1.943,5.258,8.967,5.242,19.205c-0.002,3.574-0.493,7.575-1.751,11.955
					C186.433,173.665,190.414,172.041,194.335,170.874z M188.769,290.817c0,0.913,0.741,1.657,1.656,1.657h7.454
					c0.916,0,1.661-0.744,1.661-1.657v-56.708h-10.771V290.817z M212.741,83.85c9.794,0,13.867-3.96,15.178-18.431h-30.556
					C198.543,79.889,202.387,83.85,212.741,83.85z M212.18,145.105c0,2.329,1.078,3.289,3.198,3.289h0.077
					c2.12,0,3.197-0.957,3.197-3.289v-0.112c0-2.321-1.077-3.289-3.197-3.289h-0.077c-2.12,0-3.198,0.965-3.198,3.289V145.105z
					 M250.3,106.806V66.207h-0.096c0.042-1.028,0.092-2.053,0.092-3.12v-1.102c0.018-12.369-2.876-22.222-9.581-28.92
					c-6.723-6.685-16.328-9.292-27.651-9.277h-0.756c-11.327-0.014-20.936,2.593-27.659,9.277
					c-6.705,6.698-9.591,16.551-9.581,28.92v1.102c-0.004,2.939,0.17,5.727,0.505,8.376v35.134
					c-9.173,0.738-18.413,4.07-18.413,20.583v55.565c0,0.912,0.746,1.656,1.661,1.656h7.459c0.908,0,1.653-0.744,1.653-1.656
					v-53.657c0-8.224,1.404-11.828,7.93-12.799c0.635,5.115,2.386,9.528,5.702,12.842c4.069,4.035,9.648,5.596,15.757,5.759
					c0.056,0.007,0.105,0.035,0.166,0.035h1.597c0.907,0,1.657-0.745,1.657-1.661v-7.164c0-0.912-0.75-1.657-1.657-1.657h-1.41
					c-4.621-0.131-7.245-1.226-8.736-2.728c-1.128-1.105-2.092-2.918-2.575-5.886c0.024,0,0.049-0.003,0.074-0.003h12.368
					c0.908,0,1.657-0.746,1.657-1.657v-6.221c0-0.912-0.745-1.657-1.657-1.657h-12.775V93.229
					c6.636,5.758,15.693,8.062,26.282,8.055h0.829c10.821,0,20.042-2.424,26.708-8.492v18.674c-0.01,5.73-1.31,8.677-2.91,10.245
					c-1.491,1.502-4.109,2.6-8.733,2.728h-1.099c-0.043,0-0.081,0.021-0.128,0.029h-0.017l0,0c-0.838,0.077-1.513,0.77-1.513,1.628
					v7.161c0,0.869,0.675,1.555,1.513,1.633v0.035l0.311-0.003h1.431c0.074,0,0.142-0.031,0.216-0.045
					c2.254-0.078,4.427-0.364,6.476-0.891v0.039h0.282c3.258,0.014,4.646,0.731,5.271,1.374c0.646,0.625,1.462,2.102,1.474,5.73
					v0.41c-0.012,3.65-0.831,5.116-1.47,5.738c-0.623,0.636-2.01,1.355-5.275,1.37h-2.603c-0.908,0-1.657,0.742-1.657,1.657
					c-0.976,3.614-1.721,8.779-1.721,13.615c0,3.788,0.452,7.918,1.494,12.305c-6.458-1.917-12.731-2.613-17.745-2.613l-0.16,0.007
					h-1.056l-0.159-0.007c-10.429,0-26.359,2.949-37.965,13.897c-0.636,0.595-0.764,1.66-0.076,2.618l4.013,4.362v32.588
					c0,0.91,0.738,1.656,1.66,1.656h46.277v62.094c0,0.913,0.741,1.656,1.657,1.656h7.453c0.916,0,1.661-0.743,1.661-1.656v-62.096
					h7.01c0.914,0,1.657-0.746,1.657-1.657v-31.856c0.473,0.228,1.031,0.232,1.508-0.127l4.564-4.964
					c0.683-0.958,0.555-2.023-0.081-2.618c-2.304-2.18-4.784-4.023-7.355-5.609c-2.907-6.812-3.9-12.825-3.911-17.979
					c0-1.875,0.135-3.632,0.36-5.273c2.911-0.583,5.621-1.788,7.818-3.961c3.363-3.367,4.562-8.059,4.55-13.146v-0.41
					c0.012-5.083-1.19-9.772-4.543-13.134c-0.586-0.583-1.223-1.074-1.879-1.526c1.872-2.781,3.002-6.063,3.512-9.751
					c4.833,1.402,5.944,5.059,5.944,12.372v53.657c0,0.912,0.747,1.656,1.655,1.656h7.461c0.914,0,1.657-0.744,1.657-1.656V127.18
					C266.685,111.883,258.761,107.897,250.3,106.806z M212.308,34.242h0.756c9.903,0.014,16.298,2.25,20.271,6.228
					c1.304,1.293,2.423,2.905,3.374,4.816h-9.221c-8.497,0.007-14.075-1.615-17.52-4.056c-2.268-1.622-3.907-3.657-5.076-6.455
					C207.121,34.432,209.57,34.245,212.308,34.242z M239.847,63.087c-0.012,10.956-2.52,17.586-6.508,21.54
					c-3.972,3.968-10.366,6.193-20.275,6.203h-0.756c-9.909-0.01-16.308-2.235-20.279-6.203c-3.989-3.95-6.493-10.581-6.507-21.54
					v-1.102c0.014-10.917,2.518-17.551,6.507-21.519c0.812-0.809,1.749-1.527,2.767-2.187c1.869,4.698,4.822,8.772,9.033,11.697
					c6.041,4.211,13.909,5.991,23.66,5.995h12.029c0.198,1.858,0.325,3.829,0.329,6.013V63.087L239.847,63.087z M234.648,188.655
					v29.299h-45.832v-29.161c9.317-4.812,19.502-5.009,23.262-5.009h1.373c3.495,0,12.602,0.417,21.324,4.257
					C234.695,188.234,234.648,188.441,234.648,188.655z M226.909,117.33c3.154,0,4.755-1.427,4.755-4.896v-0.169
					c0-3.455-1.601-4.896-4.755-4.896h-0.113c-3.158,0-4.759,1.441-4.759,4.896v0.169c0,3.469,1.601,4.896,4.759,4.896H226.909z
					 M87.158,167.313c0.687,0.646,1.567,0.968,2.442,0.968c0.894,0,1.786-0.332,2.479-0.995c0.007-0.016,1.277-1.237,2.572-2.552
					c0.65-0.66,1.305-1.335,1.844-1.936c0.272-0.305,0.514-0.58,0.752-0.895c0.124-0.166,0.245-0.328,0.401-0.597
					c0.124-0.331,0.449-0.501,0.544-1.937l-0.01-0.279l-2.105-26.902c-0.106-1.837-1.274-3.194-2.367-3.886l-1.747-1.576
					c-1.346-1.208-3.386-1.222-4.747-0.028l-1.917,1.696c-0.92,0.636-2.088,1.721-2.27,3.794h-0.007l-2.109,26.902l-0.007,0.279
					c0.096,1.471,0.434,1.636,0.562,1.968c0.553,0.858,0.922,1.19,1.501,1.834C84.6,164.904,87.133,167.286,87.158,167.313z
					 M88.92,83.613c10.356,0,14.199-3.964,15.382-18.431h-30.56C75.054,79.649,79.128,83.613,88.92,83.613z M88.601,101.048h0.828
					c11.284,0,20.864-2.59,27.574-9.253c6.711-6.698,9.599-16.548,9.587-28.948v-1.102c0.012-12.372-2.876-22.218-9.583-28.92
					c-3.588-3.568-8.023-5.946-13.081-7.412c2.987-2.742,5.545-6.295,7.705-10.93c0.348-0.94,0.408-1.873-0.488-2.452l-5.485-2.911
					c-0.851-0.512-2.291-0.721-2.909,0.406c-2.395,4.631-5.017,7.924-8.407,10.245c-2.638,1.816-5.847,3.074-9.968,3.896
					c-9.493,0.594-17.56,3.314-23.436,9.158c-6.703,6.698-9.593,16.548-9.579,28.917v1.105c-0.014,12.396,2.872,22.247,9.583,28.948
					C67.674,98.473,77.278,101.055,88.601,101.048z M61.812,61.745c0.011-10.917,2.514-17.555,6.508-21.515
					c3.976-3.982,10.376-6.211,20.277-6.232h0.749c9.903,0.014,16.303,2.25,20.276,6.232c3.991,3.963,6.496,10.598,6.509,21.515
					v1.102c-0.014,10.956-2.518,17.586-6.505,21.543c-3.971,3.967-10.374,6.189-20.28,6.204h-0.749
					c-9.908-0.014-16.308-2.239-20.284-6.204c-3.987-3.949-6.49-10.584-6.504-21.543v-1.102H61.812z M215.374,131.222h0.077
					c2.12,0,3.197-0.961,3.197-3.292v-0.106c0-2.328-1.077-3.292-3.197-3.292h-0.077c-2.12,0-3.197,0.964-3.197,3.292v0.106
					C212.18,130.265,213.254,131.222,215.374,131.222z M64.54,135.444h-7.459c-0.912,0-1.657,0.746-1.657,1.656v46.451
					c3.523-2.112,7.163-3.738,10.773-4.988V137.1C66.197,136.189,65.452,135.444,64.54,135.444z M122.777,190.228V138.33
					c0-0.912-0.745-1.66-1.656-1.66h-7.457c-0.911,0-1.657,0.749-1.657,1.66v46.125c-8.043-3.159-16.207-4.226-22.423-4.226h-0.159
					H88.37H88.21c-10.425,0-26.357,2.947-37.962,13.892c-0.631,0.594-0.765,1.659-0.082,2.622l4.566,4.964
					c0.211,0.157,0.439,0.241,0.67,0.279v88.828c0,0.911,0.742,1.657,1.657,1.657h7.456c0.916,0,1.661-0.746,1.661-1.657v-95.83
					c8.935-4.138,18.451-4.577,22.035-4.577h1.374c3.644,0,13.342,0.17,22.423,4.569v95.541c0,0.911,0.746,1.657,1.657,1.657h7.459
					c0.912,0,1.657-0.746,1.657-1.657v-88.682c0.093-0.042,0.196-0.057,0.282-0.122l4.565-4.966c0.687-0.961,0.558-2.026-0.076-2.62
					C126.026,192.69,124.427,191.4,122.777,190.228z M212.18,162.276c0,2.33,1.078,3.291,3.198,3.291h0.077
					c2.12,0,3.197-0.961,3.197-3.291v-0.106c0-2.324-1.077-3.293-3.197-3.293h-0.077c-2.12,0-3.198,0.965-3.198,3.293V162.276z
					 M121.214,106.142c-0.684-0.032-1.443-0.046-2.217-0.067c0.003-0.007,0.007-0.014,0.01-0.021h-16.148
					c-0.908,0-1.657,0.745-1.657,1.657v9.062c-2.823-2.498-5.529-4.939-7.182-6.818c-0.75-0.848-1.316-1.381-2.073-1.381h-4.421
					c-0.756,0-1.323,0.533-2.072,1.381c-1.661,1.879-4.374,4.327-7.2,6.832v-2.737c0.003-0.039,0.021-0.071,0.021-0.11v-6.225
					c0-0.912-0.75-1.657-1.657-1.657H60.47c0.004,0.011,0.007,0.018,0.011,0.025c-0.777,0.014-1.534,0.035-2.217,0.064
					c-10.441,0.166-23.287,1.328-23.287,20.801v55.565c0,0.912,0.746,1.654,1.657,1.654h7.459c0.908,0,1.654-0.742,1.654-1.654
					v-53.664c0-9.86,1.992-13.093,12.434-13.093c0.821,0,3.88-0.12,6.07-0.163h4.468v10.354c0,0.054,0.025,0.092,0.029,0.139
					c-0.007,0.353,0.134,0.713,0.445,1.035l4.429,4.398c0.584,0.597,1.399,0.396,1.95-0.134c2.936-2.812,11.806-9.835,14.165-13.029
					c2.36,3.197,11.226,10.224,14.167,13.029c0.548,0.53,1.366,0.731,1.95,0.134l4.428-4.398c0.322-0.332,0.456-0.71,0.438-1.077
					c0.003-0.036,0.018-0.063,0.018-0.096v-10.354h4.494c2.189,0.042,5.245,0.163,6.069,0.163c10.445,0,12.434,3.232,12.434,13.093
					v53.657c0,0.911,0.746,1.661,1.654,1.661h7.459c0.912,0,1.66-0.75,1.66-1.661v-55.561
					C144.501,107.467,131.656,106.308,121.214,106.142z"/>
			</g>
		</g>
	</g>
</g>
<g id="Layer_1">
</g>
</svg>
