<?xml version="1.0" encoding="iso-8859-1"?>
<!-- Generator: Adobe Illustrator 16.0.0, SVG Export Plug-In . SVG Version: 6.00 Build 0)  -->
<!DOCTYPE svg PUBLIC "-//W3C//DTD SVG 1.1//EN" "http://www.w3.org/Graphics/SVG/1.1/DTD/svg11.dtd">
<svg version="1.1" xmlns="http://www.w3.org/2000/svg" xmlns:xlink="http://www.w3.org/1999/xlink" x="0px" y="0px" width="300px"
	 height="300px" viewBox="0 0 300 300" style="enable-background:new 0 0 300 300;" xml:space="preserve">
<g id="giving_1">
	<g>
		<path style="fill:#FDB948;" d="M286.913,145.052h-51.982c5.83-1.845,10.982-4.15,13.817-6.988
			c4.716-4.713,7.312-10.98,7.312-17.644s-2.596-12.931-7.312-17.644c-4.71-4.712-10.977-7.309-17.645-7.309
			c-6.667,0-12.935,2.597-17.65,7.309c-3.955,3.959-7.137,12.233-9.515,20.521c-2.381-8.288-5.572-16.565-9.528-20.524
			c-4.713-4.712-10.979-7.309-17.644-7.309c-1.789,0-3.542,0.205-5.252,0.565v-1.875h8.314c2.735,0,4.954-2.219,4.954-4.954V53.843
			c0-2.735-2.219-4.954-4.954-4.954h-46.248c5.298-4.792,8.503-10.877,9.273-17.115c1.465-11.767-6.138-21.07-18.487-22.618
			c-8.86-1.108-16.434,1.293-21.887,6.952c-1.898,1.964-3.373,4.267-4.62,6.71c-1.25-2.447-2.729-4.746-4.62-6.71
			c-5.457-5.655-13.014-8.053-21.89-6.952c-12.348,1.548-19.951,10.848-18.487,22.615c0.775,6.234,3.979,12.322,9.275,17.115H12.954
			C10.218,48.885,8,51.104,8,53.839V89.2c0,2.735,2.218,4.954,4.954,4.954h8.314v191.354c0,2.738,2.219,4.954,4.954,4.954h94.731
			h7.392h158.567c2.735,0,4.954-2.216,4.954-4.954V150.006C291.867,147.268,289.648,145.052,286.913,145.052z M281.959,213.782
			H208.89v-45.352c4.637,6.376,10.973,11.079,19.631,11.079c0.844,0,1.714-0.043,2.604-0.136c2.722-0.281,4.699-2.719,4.418-5.44
			c-0.281-2.719-2.715-4.663-5.44-4.415c-8.255,0.856-13.774-6.33-17.366-14.559h69.227v58.822H281.959z M116.007,280.562h-29.57
			l29.57-30.357V280.562z M159.123,138.067c2.837,2.834,7.993,5.139,13.82,6.988h-25.816l9.581-9.835
			C157.439,136.205,158.227,137.171,159.123,138.067z M195.693,154.96c-3.575,8.219-9.102,15.396-17.426,14.559
			c-2.722-0.241-5.155,1.693-5.439,4.415c-0.281,2.726,1.696,5.159,4.415,5.44c0.893,0.093,1.763,0.136,2.605,0.136
			c8.348,0,14.545-4.365,19.132-10.395v44.667h-73.072V154.96H195.693z M220.461,109.784c2.845-2.841,6.621-4.405,10.643-4.405
			s7.799,1.564,10.643,4.405c2.841,2.841,4.405,6.621,4.405,10.639c0,4.021-1.564,7.795-4.405,10.639
			c-3.786,3.783-18.784,7.306-31.315,9.24c0.608-3.162,0.89-5.42,0.972-6.178C213.86,123.664,217.25,112.999,220.461,109.784z
			 M187.406,109.784c3.859,3.856,7.977,18.484,10.424,30.582c-12.607-1.925-27.87-5.48-31.699-9.307
			c-5.864-5.864-5.864-15.412,0-21.275c2.844-2.841,6.621-4.405,10.643-4.405S184.564,106.943,187.406,109.784z M161.606,100.63
			c-0.86,0.665-1.7,1.366-2.483,2.146c-6.155,6.162-8.404,14.76-6.771,22.71L133.3,145.052h-12.346
			c-2.735,0-4.954,2.216-4.954,4.954v13.057c-0.251,0.179-0.529,0.288-0.751,0.513l-84.07,86.392v-53.343l99.664-102.463h30.764
			V100.63z M117.071,94.157l-85.893,88.26v-39.673L78.43,94.157H117.071z M109.61,22.99c3.294-3.417,7.726-4.726,13.523-3.999
			c6.988,0.876,10.679,5.199,9.892,11.565c-0.972,7.825-9.835,19.06-29.487,17.932C102.474,37.806,104.742,28.03,109.61,22.99z
			 M72.582,18.988c1.033-0.129,2.022-0.195,2.971-0.195c4.375,0,7.845,1.386,10.557,4.193c4.862,5.04,7.134,14.816,6.072,25.495
			c-19.66,1.158-28.517-10.106-29.489-17.932C61.901,24.187,65.598,19.868,72.582,18.988z M17.908,58.797h156.97v25.452H17.908
			V58.797z M64.606,94.157l-33.427,34.375V94.157H64.606z M31.179,264.174L116,177.016v58.991l-42.737,43.88
			c-0.197,0.201-0.281,0.453-0.433,0.675H31.179V264.174z M125.908,280.562V223.69h73.069v56.871h-70.632H125.908z M208.89,280.562
			V223.69h73.069v56.871H208.89z"/>
		<path style="fill:#FDB948;" d="M166.875,190.873"/>
		<path style="fill:#FDB948;" d="M76.812,283.343"/>
	</g>
</g>
<g id="Layer_1">
</g>
</svg>
