<?xml version="1.0" encoding="iso-8859-1"?>
<!-- Generator: Adobe Illustrator 16.0.0, SVG Export Plug-In . SVG Version: 6.00 Build 0)  -->
<!DOCTYPE svg PUBLIC "-//W3C//DTD SVG 1.1//EN" "http://www.w3.org/Graphics/SVG/1.1/DTD/svg11.dtd">
<svg version="1.1" xmlns="http://www.w3.org/2000/svg" xmlns:xlink="http://www.w3.org/1999/xlink" x="0px" y="0px" width="300px"
	 height="300px" viewBox="0 0 300 300" style="enable-background:new 0 0 300 300;" xml:space="preserve">
<g id="choice_2">
	<g>
		<defs>
			
			<inkscape:path-effect  is_visible="true" effect="spiro" id="path-effect3875"></inkscape:path-effect>
			<inkscape:path-effect  is_visible="true" effect="spiro" id="path-effect3086"></inkscape:path-effect>
		</defs>
		
			<sodipodi:namedview  id="base" borderopacity="1.0" pagecolor="#ffffff" bordercolor="#666666" showguides="true" inkscape:cy="30.802373" inkscape:cx="68.239835" inkscape:zoom="2.8284271" showgrid="false" inkscape:pageopacity="0.0" inkscape:window-width="1366" inkscape:current-layer="layer1" inkscape:window-x="-8" inkscape:pageshadow="2" inkscape:document-units="px" inkscape:window-maximized="1" inkscape:window-height="706" inkscape:guide-bbox="true" inkscape:window-y="-8">
			</sodipodi:namedview>
		<g id="layer1" transform="translate(0,-952.36218)" inkscape:label="Layer 1" inkscape:groupmode="layer">
			<path id="path4111" inkscape:connector-curvature="0" style="fill:#FB8C50;" d="M217.478,1188.719v-64.895
				c0.315-0.111-8.943,0-8.943,0v64.895H217.478L217.478,1188.719z M168.03,1183.86l1.944,4.938l20.524,49.114l1.945,4.941h5.403
				h66.892h5.403l-1.945-4.941l-20.524-49.114l-1.944-4.938h-5.403h-66.892H168.03z M182.67,1193.829h56.271l16.562,39.058h-56.272
				L182.67,1193.829z M185.4,1098.022h-64.895c-0.111-0.313,0,8.942,0,8.942H185.4V1098.022L185.4,1098.022z M80.476,1139.059
				v49.096c-0.315,0.086,8.943,0,8.943,0v-49.096H80.476L80.476,1139.059z M212.012,1071.842c-17.069,0-31.025,13.957-31.025,31.022
				c0,17.069,13.956,31.025,31.025,31.025c17.065,0,31.022-13.956,31.022-31.025
				C243.034,1085.799,229.077,1071.842,212.012,1071.842z M212.012,1082.466c11.333,0,20.4,9.065,20.4,20.398
				c0,11.336-9.067,20.405-20.4,20.405c-11.336,0-20.405-9.069-20.405-20.405C191.606,1091.531,200.676,1082.466,212.012,1082.466z
				 M84.943,1182.339c-17.066,0-31.022,13.957-31.022,31.023s13.956,31.021,31.022,31.021c17.069,0,31.025-13.955,31.025-31.021
				S102.012,1182.339,84.943,1182.339z M84.943,1192.958c11.335,0,20.401,9.068,20.401,20.404s-9.065,20.404-20.401,20.404
				c-11.334,0-20.403-9.068-20.403-20.404S73.609,1192.958,84.943,1192.958z M85.01,1060.603l-3.453,3.355l-36.706,35.619
				l-3.454,3.355l3.409,3.307l36.618,35.536l3.454,3.354l3.453-3.354l36.706-35.621l3.452-3.352l-3.452-3.35l-36.617-35.54
				L85.01,1060.603L85.01,1060.603z M84.966,1073.967l29.755,28.88l-29.843,28.959l-29.755-28.874L84.966,1073.967z
				 M80.476,1017.847v49.096c-0.315,0.083,8.943,0,8.943,0v-49.096H80.476L80.476,1017.847z M64.278,959.362
				c-11.681,0-21.24,9.633-21.24,21.31v23.466c0,11.68,9.56,21.239,21.24,21.239h41.331c11.681,0,21.239-9.559,21.239-21.239
				v-23.466c0-11.677-9.558-21.31-21.239-21.31H64.278z M64.278,970.844h41.331c5.517,0,9.761,4.315,9.761,9.829v23.466
				c0,5.517-4.244,9.761-9.761,9.761H64.278c-5.518,0-9.759-4.244-9.759-9.761v-23.466C54.519,975.159,58.76,970.844,64.278,970.844
				z"/>
		</g>
	</g>
</g>
<g id="Layer_1">
</g>
</svg>
