<?xml version="1.0" encoding="utf-8"?>
<!-- Generator: Adobe Illustrator 16.0.0, SVG Export Plug-In . SVG Version: 6.00 Build 0)  -->
<!DOCTYPE svg PUBLIC "-//W3C//DTD SVG 1.1//EN" "http://www.w3.org/Graphics/SVG/1.1/DTD/svg11.dtd">
<svg version="1.1" id="Your_Icon" xmlns="http://www.w3.org/2000/svg" xmlns:xlink="http://www.w3.org/1999/xlink" x="0px" y="0px"
	 width="100px" height="100px" viewBox="0 0 100 100" enable-background="new 0 0 100 100" xml:space="preserve">
<g>
	<rect x="14.259" y="-2.593" fill="none" width="74.075" height="74.074"/>
</g>
<g>
	<g>
		<path fill="#3BD0AA" d="M59.865,54.91c0.068-0.496,0.102-0.973,0.102-1.425c-0.006-2.821-1.137-4.686-1.486-5.198
			c-0.001-0.002-0.001-0.005-0.003-0.007l-0.035-0.05c-0.03-0.041-0.054-0.073-0.062-0.083v0.001l-0.096-0.131
			c-0.11-0.15-0.324-0.186-0.475-0.074l-1.186,0.863c-0.15,0.109-0.184,0.324-0.074,0.475l0.192,0.264
			c0.003,0.004,0.007,0.005,0.009,0.008c0.26,0.398,1.077,1.837,1.074,3.934c-0.001,0.731-0.102,1.55-0.359,2.447
			C58.248,55.48,59.062,55.148,59.865,54.91z M58.727,79.469c0,0.188,0.151,0.34,0.339,0.34h1.526c0.188,0,0.34-0.152,0.34-0.34
			V67.857h-2.205V79.469z M63.635,37.09c2.006,0,2.84-0.811,3.108-3.773h-6.257C60.728,36.279,61.515,37.09,63.635,37.09z
			 M63.52,49.633c0,0.477,0.221,0.674,0.655,0.674h0.016c0.435,0,0.655-0.196,0.655-0.674V49.61c0-0.476-0.221-0.674-0.655-0.674
			h-0.016c-0.435,0-0.655,0.198-0.655,0.674V49.633z M71.325,41.791v-8.313h-0.019c0.008-0.21,0.018-0.42,0.018-0.638v-0.226
			c0.004-2.533-0.589-4.55-1.961-5.921c-1.377-1.369-3.344-1.902-5.662-1.9h-0.155c-2.319-0.002-4.286,0.532-5.663,1.9
			c-1.373,1.372-1.965,3.389-1.962,5.921v0.226c-0.001,0.602,0.034,1.172,0.104,1.715v7.194c-1.878,0.151-3.771,0.834-3.771,4.215
			V57.34c0,0.188,0.152,0.34,0.34,0.34h1.527c0.187,0,0.339-0.152,0.339-0.34V46.354c0-1.685,0.288-2.422,1.624-2.621
			c0.129,1.048,0.488,1.951,1.167,2.63c0.833,0.825,1.976,1.146,3.227,1.179c0.011,0.001,0.021,0.008,0.034,0.008h0.326
			c0.187,0,0.34-0.153,0.34-0.341v-1.467c0-0.187-0.153-0.339-0.34-0.339H60.55c-0.946-0.027-1.483-0.251-1.789-0.559
			c-0.23-0.227-0.429-0.598-0.527-1.205c0.005,0,0.011-0.001,0.016-0.001h2.532c0.186,0,0.34-0.152,0.34-0.339v-1.274
			c0-0.187-0.152-0.339-0.34-0.339h-2.616v-2.674c1.358,1.178,3.214,1.65,5.382,1.648h0.17c2.216,0,4.104-0.496,5.469-1.738v3.823
			c-0.002,1.173-0.269,1.777-0.596,2.098c-0.305,0.308-0.842,0.532-1.789,0.559h-0.225c-0.009,0-0.018,0.005-0.025,0.005h-0.004
			v0.001c-0.172,0.016-0.311,0.157-0.311,0.333v1.467c0,0.178,0.139,0.318,0.311,0.334v0.008l0.063-0.002h0.292
			c0.016,0,0.029-0.006,0.045-0.008c0.461-0.017,0.906-0.075,1.326-0.184v0.008h0.058c0.667,0.004,0.951,0.15,1.079,0.281
			c0.133,0.129,0.299,0.432,0.302,1.174v0.084c-0.003,0.747-0.17,1.048-0.301,1.176c-0.128,0.129-0.412,0.277-1.08,0.279h-0.533
			c-0.187,0-0.339,0.152-0.339,0.34c-0.199,0.74-0.353,1.797-0.353,2.788c0,0.775,0.093,1.621,0.306,2.519
			c-1.322-0.393-2.607-0.534-3.633-0.534l-0.033,0.001H63.53l-0.032-0.001c-2.136,0-5.397,0.604-7.774,2.845
			c-0.13,0.122-0.156,0.34-0.016,0.537l0.821,0.893v6.673c0,0.187,0.152,0.339,0.34,0.339h9.477v12.715
			c0,0.187,0.151,0.339,0.339,0.339h1.526c0.188,0,0.34-0.152,0.34-0.339V66.756h1.436c0.188,0,0.339-0.152,0.339-0.34v-6.522
			c0.097,0.046,0.212,0.048,0.31-0.026l0.934-1.016c0.141-0.197,0.113-0.415-0.016-0.537c-0.473-0.445-0.98-0.823-1.507-1.148
			c-0.595-1.395-0.798-2.626-0.801-3.681c0-0.384,0.028-0.744,0.074-1.08c0.597-0.119,1.151-0.366,1.601-0.812
			c0.689-0.688,0.934-1.649,0.932-2.691v-0.084c0.002-1.041-0.243-2-0.93-2.689c-0.121-0.119-0.251-0.221-0.385-0.312
			c0.383-0.568,0.615-1.242,0.719-1.996c0.989,0.287,1.217,1.036,1.217,2.533V57.34c0,0.188,0.153,0.34,0.34,0.34h1.527
			c0.188,0,0.339-0.152,0.339-0.34V45.963C74.68,42.83,73.058,42.014,71.325,41.791z M63.546,26.933h0.155
			c2.027,0.003,3.336,0.461,4.15,1.275c0.268,0.265,0.496,0.594,0.69,0.986h-1.888c-1.739,0.001-2.882-0.332-3.587-0.831
			c-0.464-0.333-0.8-0.749-1.04-1.322C62.484,26.972,62.985,26.934,63.546,26.933z M69.185,32.839
			c-0.003,2.243-0.516,3.601-1.332,4.41c-0.813,0.813-2.123,1.268-4.151,1.27h-0.155c-2.028-0.002-3.339-0.457-4.151-1.27
			c-0.817-0.809-1.33-2.167-1.333-4.41v-0.226c0.003-2.235,0.516-3.594,1.333-4.406c0.166-0.166,0.357-0.312,0.565-0.448
			c0.383,0.962,0.987,1.796,1.85,2.396c1.237,0.862,2.849,1.227,4.845,1.228h2.463c0.041,0.38,0.066,0.784,0.067,1.231V32.839z
			 M68.121,58.551v5.999h-9.385v-5.972c1.907-0.984,3.993-1.025,4.763-1.025h0.282c0.715,0,2.58,0.086,4.365,0.871
			C68.131,58.465,68.121,58.506,68.121,58.551z M66.535,43.945c0.646,0,0.975-0.292,0.975-1.002v-0.035
			c0-0.707-0.328-1.002-0.975-1.002h-0.022c-0.647,0-0.974,0.295-0.974,1.002v0.035c0,0.71,0.326,1.002,0.974,1.002H66.535z
			 M37.921,54.18c0.141,0.133,0.321,0.199,0.5,0.199c0.183,0,0.366-0.068,0.507-0.205c0.001-0.002,0.261-0.252,0.526-0.521
			c0.134-0.135,0.268-0.273,0.378-0.396c0.056-0.062,0.105-0.119,0.154-0.184c0.025-0.033,0.05-0.066,0.082-0.122
			c0.025-0.067,0.092-0.103,0.111-0.396l-0.002-0.058l-0.431-5.509c-0.021-0.375-0.261-0.653-0.484-0.796l-0.358-0.323
			c-0.275-0.247-0.693-0.249-0.972-0.005l-0.393,0.347c-0.188,0.131-0.427,0.353-0.464,0.777h-0.001l-0.432,5.509l-0.001,0.058
			c0.02,0.301,0.089,0.334,0.115,0.402c0.114,0.176,0.189,0.244,0.308,0.375C37.397,53.687,37.916,54.174,37.921,54.18z
			 M38.281,37.042c2.121,0,2.908-0.811,3.15-3.773h-6.257C35.442,36.23,36.276,37.042,38.281,37.042z M38.216,40.611h0.169
			c2.311,0,4.272-0.529,5.646-1.894c1.374-1.372,1.965-3.389,1.963-5.927v-0.226c0.002-2.533-0.589-4.55-1.962-5.921
			c-0.735-0.731-1.643-1.218-2.679-1.518c0.612-0.562,1.136-1.289,1.578-2.238c0.071-0.192,0.084-0.383-0.1-0.502l-1.123-0.595
			c-0.174-0.105-0.469-0.147-0.596,0.083c-0.49,0.948-1.027,1.622-1.721,2.098c-0.54,0.372-1.197,0.629-2.041,0.798
			c-1.944,0.121-3.596,0.679-4.798,1.874c-1.373,1.372-1.964,3.389-1.961,5.921v0.226c-0.003,2.539,0.588,4.556,1.962,5.927
			C33.931,40.084,35.898,40.613,38.216,40.611z M32.731,32.564c0.002-2.235,0.515-3.595,1.333-4.406
			c0.814-0.815,2.125-1.272,4.152-1.276h0.154c2.027,0.003,3.337,0.461,4.151,1.276c0.817,0.812,1.33,2.17,1.333,4.406v0.226
			c-0.003,2.243-0.516,3.601-1.332,4.41c-0.813,0.813-2.125,1.268-4.152,1.27h-0.154c-2.029-0.002-3.339-0.458-4.153-1.27
			c-0.816-0.809-1.329-2.167-1.332-4.41L32.731,32.564L32.731,32.564z M64.174,46.791h0.016c0.434,0,0.654-0.197,0.654-0.675v-0.022
			c0-0.477-0.221-0.674-0.654-0.674h-0.016c-0.434,0-0.654,0.197-0.654,0.674v0.022C63.52,46.594,63.74,46.791,64.174,46.791z
			 M33.29,47.654h-1.527c-0.187,0-0.339,0.153-0.339,0.34v9.51c0.722-0.432,1.467-0.764,2.206-1.02v-8.49
			C33.629,47.808,33.476,47.654,33.29,47.654z M45.214,58.872V48.246c0-0.188-0.152-0.34-0.339-0.34h-1.527
			c-0.187,0-0.339,0.152-0.339,0.34v9.443c-1.646-0.646-3.318-0.865-4.591-0.865l-0.033,0.001h-0.216l-0.033-0.001
			c-2.135,0-5.397,0.604-7.773,2.846c-0.129,0.121-0.156,0.34-0.016,0.536l0.935,1.017c0.043,0.032,0.09,0.05,0.137,0.058v18.188
			c0,0.186,0.152,0.339,0.339,0.339h1.527c0.187,0,0.34-0.153,0.34-0.339V59.846c1.83-0.848,3.778-0.938,4.512-0.938h0.282
			c0.746,0,2.731,0.035,4.591,0.936v19.563c0,0.187,0.153,0.339,0.339,0.339h1.527c0.187,0,0.339-0.152,0.339-0.339V61.25
			c0.019-0.01,0.04-0.012,0.058-0.026l0.935-1.017c0.141-0.195,0.114-0.414-0.016-0.536C45.879,59.377,45.552,59.111,45.214,58.872z
			 M63.52,53.148c0,0.478,0.221,0.674,0.655,0.674h0.016c0.435,0,0.655-0.196,0.655-0.674v-0.021c0-0.476-0.221-0.674-0.655-0.674
			h-0.016c-0.435,0-0.655,0.197-0.655,0.674V53.148z M44.894,41.654c-0.14-0.006-0.295-0.01-0.454-0.013
			c0.001-0.001,0.001-0.003,0.002-0.005h-3.307c-0.186,0-0.339,0.152-0.339,0.34v1.854c-0.578-0.511-1.132-1.011-1.47-1.396
			c-0.154-0.174-0.27-0.283-0.425-0.283h-0.905c-0.155,0-0.271,0.109-0.424,0.283c-0.34,0.385-0.896,0.886-1.474,1.398v-0.561
			c0.001-0.008,0.004-0.014,0.004-0.022v-1.274c0-0.186-0.153-0.339-0.339-0.339h-3.307c0.001,0.001,0.002,0.003,0.002,0.005
			c-0.159,0.004-0.314,0.007-0.454,0.014c-2.138,0.033-4.768,0.271-4.768,4.259v11.377c0,0.187,0.152,0.339,0.339,0.339h1.527
			c0.186,0,0.338-0.152,0.338-0.339V46.305c0-2.02,0.408-2.682,2.546-2.682c0.168,0,0.795-0.024,1.243-0.033h0.915v2.121
			c0,0.01,0.005,0.018,0.006,0.027c-0.001,0.072,0.028,0.146,0.091,0.212l0.907,0.901c0.12,0.121,0.287,0.08,0.399-0.027
			c0.601-0.576,2.417-2.015,2.9-2.668c0.483,0.654,2.299,2.093,2.901,2.668c0.112,0.107,0.279,0.148,0.399,0.027l0.907-0.901
			c0.066-0.067,0.093-0.146,0.089-0.221c0.001-0.007,0.004-0.013,0.004-0.019V43.59h0.92c0.448,0.009,1.074,0.033,1.243,0.033
			c2.139,0,2.546,0.662,2.546,2.682v10.986c0,0.187,0.152,0.34,0.338,0.34h1.527c0.187,0,0.34-0.153,0.34-0.34V45.914
			C49.662,41.927,47.032,41.689,44.894,41.654z"/>
	</g>
</g>
</svg>
