<svg xmlns="http://www.w3.org/2000/svg" xmlns:xlink="http://www.w3.org/1999/xlink" version="1.1" id="Layer_1" x="0px" y="0px" viewBox="5.0 -10.0 100.0 135.0" enable-background="new 0 0 100 100" xml:space="preserve" height="100px" width="100px">
<path d="M64.1,85.7c1.3-2.4,2-5.1,2-7.9c0-9.3-7.6-16.9-16.9-16.9c-9.3,0-16.9,7.6-16.9,16.9c0,2.9,0.7,5.6,2,8  c-1.4-0.3-3,0.1-4.1,1.3c-1.8,1.8-2.1,8.8-2.1,8.8s6.9-0.5,8.6-2.3c0.8-0.8,1.3-1.9,1.3-3.1c3,2.6,6.9,4.2,11.2,4.2  c4.1,0,7.9-1.5,10.9-4c0.1,1,0.5,2,1.3,2.8c1.8,1.8,8.6,2.3,8.6,2.3s-0.4-7-2.1-8.8C66.9,86,65.5,85.6,64.1,85.7z M49.2,90.2  c-6.8,0-12.4-5.5-12.4-12.4c0-0.3,0-0.6,0-0.8C40,76.4,46.3,74.6,49,69c2.8,5.7,9.5,7.5,12.5,8c0,0.3,0,0.5,0,0.8  C61.6,84.6,56,90.2,49.2,90.2z M52.7,74.8c-1.3,0-2.4,1.1-2.4,2.4s1.1,2.4,2.4,2.4c1.3,0,2.4-1.1,2.4-2.4S54.1,74.8,52.7,74.8z   M45.3,74.8c-1.3,0-2.4,1.1-2.4,2.4s1.1,2.4,2.4,2.4s2.4-1.1,2.4-2.4S46.6,74.8,45.3,74.8z M79.4,47.6c-1.3,0-2.4,1.1-2.4,2.4  c0,1.3,1.1,2.4,2.4,2.4c1.3,0,2.4-1.1,2.4-2.4C81.8,48.6,80.7,47.6,79.4,47.6z M93,54.5c-0.2-0.3-0.5-0.6-0.8-0.8  c0.2-1,0.3-2,0.3-3.1c0-9.3-7.6-16.9-16.9-16.9c-9.3,0-16.9,7.6-16.9,16.9c0,9.3,7.6,16.9,16.9,16.9c3.3,0,6.3-0.9,8.9-2.5  c3.9,2,10.5,3,10.5,3S95.4,57.4,93,54.5z M75.6,62.9c-6.8,0-12.4-5.5-12.4-12.4c0-5.5,3.6-10.1,8.5-11.7c2.8,9.1,12.8,9.6,16.1,9.5  c0.1,0.7,0.2,1.5,0.2,2.2C88,57.4,82.4,62.9,75.6,62.9z M72,47.6c-1.3,0-2.4,1.1-2.4,2.4c0,1.3,1.1,2.4,2.4,2.4  c1.3,0,2.4-1.1,2.4-2.4C74.4,48.6,73.3,47.6,72,47.6z M45.3,27.1c1.3,0,2.4-1.1,2.4-2.4c0-1.3-1.1-2.4-2.4-2.4S43,23.4,43,24.7  C43,26,44,27.1,45.3,27.1z M52.7,27.1c1.3,0,2.4-1.1,2.4-2.4c0-1.3-1.1-2.4-2.4-2.4c-1.3,0-2.4,1.1-2.4,2.4  C50.4,26,51.4,27.1,52.7,27.1z M48.9,42.2c9.3,0,16.9-7.6,16.9-16.9c0-6.8-4-12.7-9.8-15.3c1.1-3.1,1.2-5.8,1.2-5.8  c-2,0.3-3.6,0.9-5.1,1.6c0.1-0.6,0.1-0.9,0.1-0.9C47.9,5.6,45,7.4,43,9.5c-6.4,2.4-11,8.6-11,15.8C32,34.6,39.6,42.2,48.9,42.2z   M48.9,12.9c6.8,0,12.4,5.5,12.4,12.4c0,4.7-2.6,8.8-6.5,10.9c0-0.1,0-0.1,0-0.2c0-3.3-2.7-5.9-5.9-5.9S43,32.7,43,36  c0,0.1,0,0.1,0,0.2c-3.8-2.1-6.5-6.2-6.5-10.9C36.5,18.5,42.1,12.9,48.9,12.9z M25.5,47c-1.3,0-2.4,1.1-2.4,2.4  c0,1.3,1.1,2.4,2.4,2.4s2.4-1.1,2.4-2.4C27.8,48,26.8,47,25.5,47z M38.8,49.9c0-9.3-7.6-16.9-16.9-16.9C12.6,33,5,40.6,5,49.9  c0,9.3,7.6,16.9,16.9,16.9C31.2,66.8,38.8,59.3,38.8,49.9z M21.9,62.3c-6.8,0-12.4-5.5-12.4-12.4c0-0.2,0-0.4,0-0.6  c1.4-0.1,3.7-0.3,6.4-1c-0.1,0.3-0.2,0.7-0.2,1c0,1.3,1.1,2.4,2.4,2.4c1.3,0,2.4-1.1,2.4-2.4c0-0.9-0.5-1.6-1.2-2  c3.6-1.3,7.5-3.5,10.3-7.1c2.9,2.3,4.7,5.8,4.7,9.7C34.3,56.8,28.7,62.3,21.9,62.3z"/>
<text x="0.0" y="117.5" font-size="5.0" font-weight="bold" font-family="Helvetica Neue, Helvetica, Arial-Unicode, Arial, Sans-serif" fill="#000000">Created by Andrew Hainen</text><text x="0.0" y="122.5" font-size="5.0" font-weight="bold" font-family="Helvetica Neue, Helvetica, Arial-Unicode, Arial, Sans-serif" fill="#000000">from the Noun Project</text></svg>